<svg width="51" height="50" viewBox="0 0 51 50" fill="none" xmlns="http://www.w3.org/2000/svg">
<path d="M49.1352 1.0873C48.6312 0.678476 48.0531 0.37487 47.4341 0.193818C46.815 0.0127656 46.167 -0.0421864 45.527 0.0320995C44.8871 0.106385 44.2678 0.308454 43.7045 0.626767C43.1412 0.945081 42.6449 1.3734 42.2439 1.88728L22.5589 27.1346L15.6774 18.3068C14.8679 17.2685 13.687 16.6006 12.3944 16.4501C11.1019 16.2995 9.80362 16.6785 8.78521 17.5039C7.7668 18.3292 7.11169 19.5332 6.96398 20.851C6.81628 22.1688 7.18809 23.4924 7.99761 24.5307L18.718 38.2803C19.6478 39.4743 21.0621 40.1663 22.5569 40.1663C24.0517 40.1663 25.4641 39.4663 26.3958 38.2783L49.9238 8.11111C51.6108 5.95117 51.2577 2.80525 49.1352 1.0873ZM39.2328 44.0002H5.88492V10.0011H30.9076L35.5861 4.00122H2.94246C1.3143 4.00122 0 5.34119 0 7.00114V47.0001C0 48.656 1.3143 50 2.94246 50H42.1753C42.9557 50 43.7041 49.6839 44.2559 49.1213C44.8077 48.5588 45.1177 47.7957 45.1177 47.0001V20.7008L39.2328 28.2486V44.0002Z" fill="#3684CB"/>
</svg>
