<svg width="23" height="23" viewBox="0 0 23 23" fill="none" xmlns="http://www.w3.org/2000/svg">
<path d="M19.2512 3.69833C18.2428 2.68013 17.0417 1.87294 15.718 1.32383C14.3944 0.774721 12.9746 0.494691 11.5416 0.500076C5.53693 0.500076 0.643305 5.39233 0.637805 11.3983C0.637805 13.322 1.14105 15.1933 2.09118 16.8502L0.549805 22.5001L6.3303 20.9848C7.92872 21.8569 9.72072 22.3132 11.5416 22.3117H11.5471C17.5531 22.3117 22.4453 17.4195 22.4508 11.408C22.452 9.97528 22.1698 8.55653 21.6205 7.23337C21.0711 5.91022 20.2668 4.70881 19.2512 3.69833ZM11.5416 20.4665C9.91792 20.4652 8.32436 20.0283 6.92705 19.2015L6.59705 19.0035L3.1678 19.9027L4.08355 16.5573L3.86905 16.2122C2.96129 14.7689 2.48119 13.0979 2.48443 11.3928C2.48443 6.40708 6.5503 2.33983 11.5471 2.33983C12.7374 2.33769 13.9165 2.5712 15.0162 3.0269C16.1159 3.4826 17.1146 4.15147 17.9546 4.99495C18.7973 5.83528 19.4654 6.83407 19.9204 7.93378C20.3754 9.03348 20.6082 10.2123 20.6056 11.4025C20.6001 16.4061 16.5342 20.4665 11.5416 20.4665ZM16.5122 13.6822C16.2413 13.5461 14.9034 12.8875 14.6518 12.794C14.4016 12.7046 14.2187 12.6578 14.0399 12.9301C13.8571 13.201 13.3346 13.8183 13.1778 13.9957C13.0211 14.1786 12.8588 14.1992 12.5866 14.0645C12.3157 13.927 11.4371 13.641 10.3976 12.7101C9.5863 11.9882 9.04318 11.0945 8.88093 10.8236C8.72418 10.5513 8.8658 10.4056 9.00193 10.2695C9.12155 10.1485 9.2728 9.95045 9.40893 9.7937C9.54643 9.63695 9.5918 9.52145 9.68118 9.33995C9.77055 9.1557 9.72793 8.99895 9.66055 8.86283C9.5918 8.7267 9.04868 7.38333 8.81905 6.84158C8.59905 6.3067 8.37493 6.38095 8.20718 6.37408C8.05043 6.36445 7.86755 6.36445 7.68468 6.36445C7.54659 6.36797 7.41072 6.39994 7.28556 6.45838C7.1604 6.51682 7.04865 6.60046 6.9573 6.70408C6.70705 6.97633 6.00718 7.63495 6.00718 8.97833C6.00718 10.3217 6.98343 11.6128 7.12093 11.7957C7.25568 11.9786 9.03768 14.7272 11.7726 15.9097C12.4188 16.1916 12.9276 16.358 13.3249 16.4845C13.9781 16.6935 14.5679 16.6618 15.0382 16.5945C15.5607 16.5147 16.6483 15.9345 16.8779 15.2978C17.1034 14.6598 17.1034 14.1153 17.0347 14.0012C16.9673 13.8857 16.7844 13.8183 16.5122 13.6822Z" fill="white"/>
</svg>
